<?xml version="1.0" standalone="no"?><!DOCTYPE svg PUBLIC "-//W3C//DTD SVG 1.1//EN" "http://www.w3.org/Graphics/SVG/1.1/DTD/svg11.dtd"><svg t="1664287554660" class="icon" viewBox="0 0 1024 1024" version="1.1" xmlns="http://www.w3.org/2000/svg" p-id="7385" width="26" height="26" xmlns:xlink="http://www.w3.org/1999/xlink"><path d="M512.5 147.18L196.097 329.59v364.82L512.5 876.82l316.403-182.41V329.59L512.5 147.18z m16.021-73.893L884.98 278.788A31.988 31.988 0 0 1 901 306.498v411.004a31.988 31.988 0 0 1-16.021 27.71L528.52 950.713a32.083 32.083 0 0 1-32.042 0L140.02 745.212A31.988 31.988 0 0 1 124 717.502V306.498a31.988 31.988 0 0 1 16.021-27.71L496.48 73.287a32.083 32.083 0 0 1 32.042 0zM512.5 643.985c-73 0-132.177-59.092-132.177-131.985 0-72.893 59.178-131.985 132.177-131.985 73 0 132.177 59.092 132.177 131.985 0 72.893-59.178 131.985-132.177 131.985z" fill="#515151" p-id="7386"></path></svg>